<svg id="Camada_1" data-name="Camada 1" xmlns="http://www.w3.org/2000/svg" viewBox="0 0 595.28 608"><path d="M563.34,23.23V456.79a75.83,75.83,0,0,1-4.07,8c-7.68,11.68-15.5,23.26-23.29,34.86q-28.47,42.36-56.93,84.7a10.9,10.9,0,0,1-9.79,5.28q-213.39-.07-426.76,0a21.83,21.83,0,0,1-4-.27c-4-.75-5.45-2.27-6.08-6.3a37.65,37.65,0,0,1-.38-5.72q0-209.8,0-419.6a30,30,0,0,1,5.34-17.29Q76,83.17,114.5,25.79c2.57-3.82,5.44-7,10-8.31H556.62C559.79,18.31,562.35,19.86,563.34,23.23ZM462.15,447.94V159.39H133.32V447.94Zm.07,16.52h-3.36q-161.49,0-323,0c-4.74,0-7.89,1.63-10.53,5.56Q92,519.67,58.5,569.16c-.83,1.23-1.63,2.48-2.6,4H462.22ZM133.28,142.73h2.31q162.9.09,325.81.2a9,9,0,0,0,8.17-4.37Q503.34,88.24,537.2,38c.76-1.14,1.38-2.37,2.2-3.79H133.28ZM48.47,554.28c1.2-1.53,2-2.47,2.73-3.5q31.29-46.51,62.6-93a16,16,0,0,0,2.85-9.39c0-26.94.11-53.87.12-80.8q0-100.71,0-201.41c0-2.28-.25-4.56-.38-6.75H48.47ZM547,448.06V53.21c-.93,1.18-1.55,1.86-2.06,2.61Q513.2,102.94,481.5,150a14.32,14.32,0,0,0-2.5,8.33c0,8.31-.06,16.63-.06,24.94q0,129.6,0,259.2c0,1.82.17,3.65.27,5.55ZM116.22,53.91l-.65-.27L56,142.07h60.21ZM539.74,465H479.55v89.33Z"/></svg>